# xmcd CD database file
#
# Track frame offsets:
#	150
#	16848
#	26271
#	43269
#	56892
#	77640
#	86388
#	111486
#	121209
#	140982
#	166455
#
# Disc length: 2547 seconds
#
# Revision: 0
# Processed by: cddbd v1.5.2PL0 Copyright (c) Steve Scherf et al.
# Submitted via: Feurio! 1.68 - http://www.feurio.com
#
DISCID=9109f10b
DTITLE=Various Artist - and the Opera Circuit
DYEAR=1900
DGENRE=
TTITLE0=Micah P. Hinson - Seems Almost Impossible
TTITLE1=Micah P. Hinson - Diggin A Grave
TTITLE2=Micah P. Hinson - Jackeyed
TTITLE3=Micah P. Hinson - It's Been So Long
TTITLE4=Micah P. Hinson - Drift Off To Sleep
TTITLE5=Micah P. Hinson - Letter To Huntsville
TTITLE6=Micah P. Hinson - She Don't Own Me
TTITLE7=Micah P. Hinson - My Time Wasted
TTITLE8=Micah P. Hinson - Little Boys Dream
TTITLE9=Micah P. Hinson - You're Only Lonely
TTITLE10=Micah P. Hinson - Don't Leave Me Now!
EXTD=\r\n
EXTT0=Composer: Unknown Composer\r\n
EXTT1=Composer: Unknown Composer\r\n
EXTT2=Composer: Unknown Composer\r\n
EXTT3=Composer: Unknown Composer\r\n
EXTT4=Composer: Unknown Composer\r\n
EXTT5=Composer: Unknown Composer\r\n
EXTT6=Composer: Unknown Composer\r\n
EXTT7=Composer: Unknown Composer\r\n
EXTT8=Composer: Unknown Composer\r\n
EXTT9=Composer: Unknown Composer\r\n
EXTT10=Composer: Unknown Composer\r\n
PLAYORDER=
